#N canvas 324 74 882 636 10;
#X obj 215 425 env~;
#X obj 330 182 noise~;
#X floatatom 549 209 5 0 0 0 - - -, f 5;
#X floatatom 254 469 5 0 0 0 - - -, f 5;
#X obj 503 429 bp~ 2000 4;
#X obj 404 429 bp~ 2000 4;
#X obj 597 427 bp~ 2000 4;
#X obj 301 428 bp~ 2000 4;
#X obj 672 249 t b f;
#X obj 496 331 * 3, f 4;
#X obj 588 335 * 4;
#X obj 685 332 *;
#X obj 559 269 / 5;
#X obj 621 290 + 1;
#X obj 422 326 * 2;
#X obj 487 511 *~ 2;
#X obj 468 581 dac~;
#X obj 23 12 r Channel-A;
#X obj 604 -3 r Channel-C;
#X obj 245 59 r Channel-B;
#X obj 446 185 * 13;
#X obj 552 42 / 100;
#X obj 128 103 * 200;
#X floatatom 719 413 5 0 0 0 - - -, f 5;
#X obj 151 -18 hsl 128 15 0 127 0 0 empty empty empty -2 -8 0 10 -262144
-1 -1 4800 1;
#X obj 721 0 hsl 128 15 0 10 0 0 empty empty empty -2 -8 0 10 -262144
-1 -1 0 1;
#X floatatom 695 58 5 0 0 0 - - -, f 5;
#X obj 784 310 env~;
#X obj 778 267 osc~;
#X obj 748 123 metro 500;
#X obj 771 184 bng 15 250 50 0 empty empty empty 17 7 0 10 -262144
-1 -1;
#X floatatom 689 115 5 0 0 0 - - -, f 5;
#X obj 743 82 * 500;
#X floatatom 798 363 5 0 0 0 - - -, f 5;
#X obj 364 3 hsl 128 15 0 127 0 0 empty empty empty -2 -8 0 10 -262144
-1 -1 300 1;
#X obj 450 -22 hsl 128 15 0 127 0 0 empty empty empty -2 -8 0 10 -262144
-1 -1 1400 1;
#X connect 0 0 3 0;
#X connect 1 0 0 0;
#X connect 1 0 7 0;
#X connect 1 0 5 0;
#X connect 1 0 4 0;
#X connect 1 0 6 0;
#X connect 2 0 8 0;
#X connect 4 0 15 0;
#X connect 5 0 15 0;
#X connect 6 0 15 0;
#X connect 7 0 15 0;
#X connect 8 0 11 0;
#X connect 8 1 11 1;
#X connect 9 0 4 1;
#X connect 10 0 6 1;
#X connect 10 0 23 0;
#X connect 11 0 15 1;
#X connect 12 0 13 0;
#X connect 13 0 11 0;
#X connect 14 0 5 1;
#X connect 15 0 16 0;
#X connect 15 0 16 1;
#X connect 17 0 22 0;
#X connect 18 0 21 0;
#X connect 19 0 20 0;
#X connect 20 0 7 2;
#X connect 20 0 5 2;
#X connect 20 0 4 2;
#X connect 20 0 9 0;
#X connect 20 0 6 2;
#X connect 20 0 12 0;
#X connect 21 0 10 0;
#X connect 21 0 2 0;
#X connect 22 0 7 1;
#X connect 22 0 14 0;
#X connect 24 0 22 0;
#X connect 25 0 26 0;
#X connect 25 0 32 0;
#X connect 27 0 33 0;
#X connect 28 0 27 0;
#X connect 29 0 30 0;
#X connect 30 0 28 0;
#X connect 32 0 31 0;
#X connect 32 0 29 1;
#X connect 34 0 20 0;
#X connect 35 0 21 0;
